<svg id="right-quotation-sign-svgrepo-com" xmlns="http://www.w3.org/2000/svg" width="71.164" height="57.909" viewBox="0 0 71.164 57.909">
  <g id="Group_16" data-name="Group 16" transform="translate(0 0)">
    <path id="Path_1" data-name="Path 1" d="M84.2,32.534C80.418,19.016,71.094,9.2,62.03,9.2a12.454,12.454,0,0,0-2.164.189A1.437,1.437,0,0,0,58.728,11.2l1.866,6.674a1.455,1.455,0,0,0,1.447,1.051l.148,0c3.361,0,9.5,5.038,12.636,16.234.124.444.241.9.354,1.372a16.364,16.364,0,0,0-11.507-1.084,16.132,16.132,0,1,0,8.689,31.071c5.65-1.579,9.9-6.27,11.961-13.2A38.547,38.547,0,0,0,84.2,32.534Z" transform="translate(-14.524 -9.204)" fill="#876b5d"/>
    <path id="Path_2" data-name="Path 2" d="M10.144,9.206a12.443,12.443,0,0,0-2.162.187A1.438,1.438,0,0,0,6.844,11.2L8.71,17.872a1.446,1.446,0,0,0,1.447,1.051l.147,0c3.361,0,9.5,5.038,12.637,16.234.125.447.242.9.354,1.372a16.365,16.365,0,0,0-11.507-1.084A16.132,16.132,0,1,0,20.48,66.513c5.649-1.579,9.9-6.27,11.961-13.2a38.552,38.552,0,0,0-.126-20.775C28.533,19.017,19.21,9.206,10.144,9.206Z" transform="translate(0 -9.205)" fill="#876b5d"/>
  </g>
</svg>
