<svg id="right-quotation-sign-svgrepo-com" xmlns="http://www.w3.org/2000/svg" width="71.164" height="57.909" viewBox="0 0 71.164 57.909">
  <g id="Group_16" data-name="Group 16" transform="translate(0 0)">
    <path id="Path_1" data-name="Path 1" d="M53.374,32.534C57.154,19.016,66.478,9.2,75.541,9.2a12.454,12.454,0,0,1,2.164.189A1.437,1.437,0,0,1,78.844,11.2l-1.866,6.674a1.455,1.455,0,0,1-1.447,1.051l-.148,0c-3.361,0-9.5,5.038-12.636,16.234-.124.444-.241.9-.354,1.372A16.364,16.364,0,0,1,73.9,35.441,16.132,16.132,0,1,1,65.21,66.512c-5.65-1.579-9.9-6.27-11.961-13.2A38.547,38.547,0,0,1,53.374,32.534Z" transform="translate(-51.884 -9.204)" fill="#876b5d"/>
    <path id="Path_2" data-name="Path 2" d="M23.661,9.206a12.443,12.443,0,0,1,2.162.187A1.438,1.438,0,0,1,26.962,11.2L25.1,17.872a1.446,1.446,0,0,1-1.447,1.051l-.147,0c-3.361,0-9.5,5.038-12.637,16.234-.125.447-.242.9-.354,1.372a16.365,16.365,0,0,1,11.507-1.084,16.132,16.132,0,1,1-8.691,31.071c-5.649-1.579-9.9-6.27-11.961-13.2a38.552,38.552,0,0,1,.126-20.775C5.272,19.017,14.6,9.206,23.661,9.206Z" transform="translate(37.359 -9.205)" fill="#876b5d"/>
  </g>
</svg>
